<?xml version="1.0" encoding="UTF-8" standalone="no"?>
<!-- Created with Inkscape (http://www.inkscape.org/) -->

<svg
   width="8.4780464mm"
   height="5.65381mm"
   viewBox="0 0 8.4780464 5.65381"
   version="1.1"
   id="svg5"
   xml:space="preserve"
   inkscape:version="1.2.1 (9c6d41e410, 2022-07-14)"
   sodipodi:docname="spotify-secondary.svg"
   xmlns:inkscape="http://www.inkscape.org/namespaces/inkscape"
   xmlns:sodipodi="http://sodipodi.sourceforge.net/DTD/sodipodi-0.dtd"
   xmlns="http://www.w3.org/2000/svg"
   xmlns:svg="http://www.w3.org/2000/svg"><sodipodi:namedview
     id="namedview7"
     pagecolor="#ffffff"
     bordercolor="#000000"
     borderopacity="0.25"
     inkscape:showpageshadow="2"
     inkscape:pageopacity="0.0"
     inkscape:pagecheckerboard="0"
     inkscape:deskcolor="#d1d1d1"
     inkscape:document-units="mm"
     showgrid="false"
     inkscape:zoom="4.2179991"
     inkscape:cx="18.018022"
     inkscape:cy="1.1853962"
     inkscape:window-width="960"
     inkscape:window-height="1017"
     inkscape:window-x="952"
     inkscape:window-y="-8"
     inkscape:window-maximized="0"
     inkscape:current-layer="layer1" /><defs
     id="defs2" /><g
     inkscape:label="Layer 1"
     inkscape:groupmode="layer"
     id="layer1"
     transform="translate(-99.135424,-153.74022)"><path
       id="rect487"
       style="fill:#0c1b33;fill-opacity:1;stroke:none;stroke-width:1.065;stroke-linecap:round;stroke-linejoin:round"
       d="m 102.37721,153.74025 c -1.02953,0 -1.97636,0.11655 -2.824755,0.36649 -0.216253,0.0639 -0.417031,0.24514 -0.417031,0.56864 0,0.31747 0.243605,0.56864 0.561078,0.56864 0.109469,0 0.218623,-0.0434 0.305098,-0.0652 0.75085,-0.2037 1.57093,-0.28573 2.37797,-0.28573 1.61683,0 3.28859,0.35582 4.36584,1.00173 0.11358,0.0622 0.18534,0.0916 0.30651,0.0916 0.3006,0 0.56153,-0.23289 0.56155,-0.5573 0,-0.28333 -0.12599,-0.43824 -0.30698,-0.54077 -1.34315,-0.78886 -3.18163,-1.14813 -4.92928,-1.14813 z m -0.12138,2.04501 c -0.99442,0 -1.6777,0.14168 -2.346798,0.3254 -0.247517,0.0698 -0.370274,0.24379 -0.370274,0.49685 0,0.25802 0.209246,0.46662 0.465202,0.46662 0.1085,0 0.1735,-0.0343 0.28952,-0.0662 0.53844,-0.14349 1.18884,-0.24889 1.94252,-0.24889 1.46939,0 2.81108,0.38184 3.77925,0.95639 0.0877,0.051 0.16933,0.10295 0.29849,0.10295 0.25866,0 0.46383,-0.20791 0.46378,-0.46567 0,-0.21195 -0.0734,-0.35637 -0.27203,-0.47041 -1.18483,-0.70904 -2.69174,-1.09712 -4.24966,-1.09712 z m 0.0817,1.94347 c -0.76042,0 -1.49267,0.0956 -2.22778,0.26306 -0.179497,0.0344 -0.323517,0.15877 -0.323517,0.409 0,0.19434 0.150392,0.37405 0.376417,0.37405 0.0732,0 0.19631,-0.0378 0.29376,-0.059 0.5995,-0.12472 1.24004,-0.20591 1.87687,-0.20591 1.1415,0 2.21714,0.27397 3.0798,0.7958 0.0899,0.0548 0.15551,0.0883 0.25173,0.0883 0.19574,0 0.3703,-0.15761 0.37027,-0.37216 0,-0.2202 -0.087,-0.30896 -0.23567,-0.39578 -0.99883,-0.59858 -2.15955,-0.89735 -3.46188,-0.89735 z"
       sodipodi:nodetypes="scsscscsscsscsscscsccsscsscscsccs" /></g></svg>
