<?xml version="1.0" encoding="UTF-8" standalone="no"?>
<!-- Created with Inkscape (http://www.inkscape.org/) -->

<svg
   width="8.4780502mm"
   height="5.65381mm"
   viewBox="0 0 8.4780502 5.65381"
   version="1.1"
   id="svg5"
   xml:space="preserve"
   sodipodi:docname="spotify-logo.svg"
   inkscape:version="1.2.1 (9c6d41e410, 2022-07-14)"
   xmlns:inkscape="http://www.inkscape.org/namespaces/inkscape"
   xmlns:sodipodi="http://sodipodi.sourceforge.net/DTD/sodipodi-0.dtd"
   xmlns="http://www.w3.org/2000/svg"
   xmlns:svg="http://www.w3.org/2000/svg"><sodipodi:namedview
     id="namedview7"
     pagecolor="#ffffff"
     bordercolor="#000000"
     borderopacity="0.25"
     inkscape:showpageshadow="2"
     inkscape:pageopacity="0.0"
     inkscape:pagecheckerboard="0"
     inkscape:deskcolor="#d1d1d1"
     inkscape:document-units="mm"
     showgrid="false"
     inkscape:zoom="0.52724989"
     inkscape:cx="-696.06464"
     inkscape:cy="-39.829312"
     inkscape:window-width="1920"
     inkscape:window-height="1017"
     inkscape:window-x="-8"
     inkscape:window-y="-8"
     inkscape:window-maximized="1"
     inkscape:current-layer="layer1" /><defs
     id="defs2" /><g
     inkscape:label="Layer 1"
     inkscape:groupmode="layer"
     id="layer1"
     transform="translate(-53.807368,-100.44988)"><path
       id="rect487"
       style="fill:#000000;fill-opacity:1;stroke:none;stroke-width:1.065;stroke-linecap:round;stroke-linejoin:round"
       d="m 57.049156,100.44991 c -1.029536,0 -1.976363,0.11655 -2.824757,0.36649 -0.216253,0.0639 -0.417031,0.24514 -0.417031,0.56864 0,0.31747 0.243605,0.56864 0.561078,0.56864 0.109469,0 0.218623,-0.0434 0.305099,-0.0652 0.750849,-0.2037 1.570926,-0.28573 2.377972,-0.28573 1.616824,0 3.288588,0.35582 4.365834,1.00173 0.11358,0.0622 0.185344,0.0916 0.306516,0.0916 0.300595,0 0.561527,-0.23289 0.561551,-0.5573 0,-0.28333 -0.125992,-0.43824 -0.306988,-0.54077 -1.343142,-0.78886 -3.181629,-1.14813 -4.929274,-1.14813 z m -0.121378,2.04501 c -0.994425,0 -1.677709,0.14168 -2.346802,0.3254 -0.247517,0.0698 -0.370274,0.24379 -0.370274,0.49685 0,0.25802 0.209246,0.46662 0.465205,0.46662 0.1085,0 0.173492,-0.0343 0.289512,-0.0662 0.538442,-0.14349 1.188845,-0.24889 1.942522,-0.24889 1.469391,0 2.811087,0.38184 3.779252,0.95639 0.08768,0.051 0.169335,0.10295 0.298487,0.10295 0.258666,0 0.463836,-0.20791 0.463787,-0.46567 0,-0.21195 -0.07339,-0.35637 -0.272038,-0.47041 -1.184828,-0.70904 -2.691733,-1.09712 -4.249651,-1.09712 z m 0.0817,1.94347 c -0.760424,0 -1.492678,0.0956 -2.227784,0.26306 -0.179497,0.0344 -0.323517,0.15877 -0.323517,0.409 0,0.19434 0.150392,0.37405 0.376414,0.37405 0.07324,0 0.196312,-0.0378 0.293763,-0.059 0.599498,-0.12472 1.240039,-0.20591 1.876874,-0.20591 1.141495,0 2.217131,0.27397 3.079793,0.7958 0.08993,0.0548 0.155512,0.0883 0.251729,0.0883 0.195747,0 0.370299,-0.15761 0.370274,-0.37216 0,-0.2202 -0.08703,-0.30896 -0.235671,-0.39578 -0.998828,-0.59858 -2.159551,-0.89735 -3.461875,-0.89735 z"
       sodipodi:nodetypes="scsscscsscsscsscscsccsscsscscsccs" /></g></svg>
