<?xml version="1.0" encoding="UTF-8" standalone="no"?>
<!-- Created with Inkscape (http://www.inkscape.org/) -->

<svg
   width="8.407239mm"
   height="5.8854299mm"
   viewBox="0 0 8.4072389 5.8854298"
   version="1.1"
   id="svg5"
   xml:space="preserve"
   inkscape:version="1.2.1 (9c6d41e410, 2022-07-14)"
   sodipodi:docname="spotify-logo.svg"
   xmlns:inkscape="http://www.inkscape.org/namespaces/inkscape"
   xmlns:sodipodi="http://sodipodi.sourceforge.net/DTD/sodipodi-0.dtd"
   xmlns="http://www.w3.org/2000/svg"
   xmlns:svg="http://www.w3.org/2000/svg"><sodipodi:namedview
     id="namedview7"
     pagecolor="#ffffff"
     bordercolor="#000000"
     borderopacity="0.25"
     inkscape:showpageshadow="2"
     inkscape:pageopacity="0.0"
     inkscape:pagecheckerboard="0"
     inkscape:deskcolor="#d1d1d1"
     inkscape:document-units="mm"
     showgrid="false"
     inkscape:zoom="0.52724989"
     inkscape:cx="-493.12481"
     inkscape:cy="36.036044"
     inkscape:window-width="1920"
     inkscape:window-height="1017"
     inkscape:window-x="-8"
     inkscape:window-y="-8"
     inkscape:window-maximized="1"
     inkscape:current-layer="layer1" /><defs
     id="defs2" /><g
     inkscape:label="Layer 1"
     inkscape:groupmode="layer"
     id="layer1"
     transform="translate(-82.226227,-111.29455)"><path
       id="rect1147"
       style="fill:#000000;fill-opacity:1;stroke:none;stroke-width:1.065;stroke-linecap:round;stroke-linejoin:round"
       d="m 86.429588,111.29455 c 0,0 -2.628824,-2e-5 -3.284554,0.1757 -0.361649,0.0967 -0.646427,0.38187 -0.743107,0.74362 -0.17564,0.65565 -0.1757,2.02365 -0.1757,2.02365 0,0 6e-5,1.36754 0.1757,2.02313 0.0967,0.36176 0.381458,0.64697 0.743107,0.74363 0.65573,0.17563 3.284554,0.1757 3.284554,0.1757 0,0 2.629342,-7e-5 3.285071,-0.1757 0.36173,-0.0967 0.646417,-0.38187 0.743107,-0.74363 0.17564,-0.65559 0.1757,-2.02313 0.1757,-2.02313 0,0 -6e-5,-1.368 -0.1757,-2.02365 -0.0967,-0.36175 -0.381377,-0.64693 -0.743107,-0.74362 -0.655729,-0.17572 -3.285071,-0.1757 -3.285071,-0.1757 z m -0.840775,1.68155 2.184363,1.26142 -2.184363,1.26091 z"
       sodipodi:nodetypes="ccccccccccccccccc" /></g></svg>
